<svg width="319" height="77" viewBox="0 0 319 77" fill="none" xmlns="http://www.w3.org/2000/svg">
<path d="M129.232 40.878C130.636 40.878 131.867 40.696 132.924 40.332C133.999 39.968 134.891 39.4567 135.602 38.798C136.33 38.122 136.876 37.3247 137.24 36.406C137.604 35.47 137.786 34.4387 137.786 33.312C137.786 31.0413 137.075 29.256 135.654 27.956C134.25 26.656 132.109 26.006 129.232 26.006H123.46V40.878H129.232ZM129.232 21.664C131.624 21.664 133.704 21.9413 135.472 22.496C137.24 23.0507 138.705 23.8393 139.866 24.862C141.027 25.8673 141.885 27.0893 142.44 28.528C143.012 29.9667 143.298 31.5613 143.298 33.312C143.298 35.0627 142.995 36.6747 142.388 38.148C141.781 39.604 140.889 40.8607 139.71 41.918C138.531 42.9753 137.058 43.7987 135.29 44.388C133.539 44.96 131.52 45.246 129.232 45.246H123.46V59H117.922V21.664H129.232ZM153.518 32.584V59H148.448V32.584H153.518ZM154.48 24.42C154.48 24.888 154.385 25.3387 154.194 25.772C154.003 26.188 153.743 26.5607 153.414 26.89C153.102 27.202 152.729 27.4533 152.296 27.644C151.863 27.8173 151.412 27.904 150.944 27.904C150.476 27.904 150.034 27.8173 149.618 27.644C149.202 27.4533 148.829 27.202 148.5 26.89C148.188 26.5607 147.937 26.188 147.746 25.772C147.573 25.3387 147.486 24.888 147.486 24.42C147.486 23.9347 147.573 23.484 147.746 23.068C147.937 22.6347 148.188 22.262 148.5 21.95C148.829 21.6207 149.202 21.3693 149.618 21.196C150.034 21.0053 150.476 20.91 150.944 20.91C151.412 20.91 151.863 21.0053 152.296 21.196C152.729 21.3693 153.102 21.6207 153.414 21.95C153.743 22.262 154.003 22.6347 154.194 23.068C154.385 23.484 154.48 23.9347 154.48 24.42ZM183.011 59H178.123C177.724 59 177.403 58.896 177.161 58.688C176.935 58.4627 176.753 58.2287 176.615 57.986L170.245 47.924C170.158 48.184 170.071 48.4353 169.985 48.678C169.898 48.9207 169.785 49.146 169.647 49.354L163.797 57.986C163.623 58.2287 163.424 58.4627 163.199 58.688C162.973 58.896 162.679 59 162.315 59H157.791L166.995 45.402L158.155 32.584H163.043C163.441 32.584 163.727 32.6447 163.901 32.766C164.091 32.8873 164.256 33.0693 164.395 33.312L170.661 42.958C170.747 42.698 170.843 42.4467 170.947 42.204C171.051 41.944 171.189 41.6753 171.363 41.398L176.745 33.416C177.057 32.8613 177.473 32.584 177.993 32.584H182.647L173.807 45.168L183.011 59ZM192.366 32.584V59H187.296V32.584H192.366ZM193.328 24.42C193.328 24.888 193.232 25.3387 193.042 25.772C192.851 26.188 192.591 26.5607 192.262 26.89C191.95 27.202 191.577 27.4533 191.144 27.644C190.71 27.8173 190.26 27.904 189.792 27.904C189.324 27.904 188.882 27.8173 188.466 27.644C188.05 27.4533 187.677 27.202 187.348 26.89C187.036 26.5607 186.784 26.188 186.594 25.772C186.42 25.3387 186.334 24.888 186.334 24.42C186.334 23.9347 186.42 23.484 186.594 23.068C186.784 22.6347 187.036 22.262 187.348 21.95C187.677 21.6207 188.05 21.3693 188.466 21.196C188.882 21.0053 189.324 20.91 189.792 20.91C190.26 20.91 190.71 21.0053 191.144 21.196C191.577 21.3693 191.95 21.6207 192.262 21.95C192.591 22.262 192.851 22.6347 193.042 23.068C193.232 23.484 193.328 23.9347 193.328 24.42ZM227.302 49.793C227.698 49.793 228.049 49.946 228.355 50.252L231.217 53.357C229.633 55.319 227.68 56.822 225.358 57.866C223.054 58.91 220.282 59.432 217.042 59.432C214.144 59.432 211.534 58.937 209.212 57.947C206.908 56.957 204.937 55.58 203.299 53.816C201.661 52.052 200.401 49.946 199.519 47.498C198.655 45.05 198.223 42.377 198.223 39.479C198.223 36.545 198.691 33.863 199.627 31.433C200.563 28.985 201.877 26.879 203.569 25.115C205.279 23.351 207.313 21.983 209.671 21.011C212.029 20.021 214.639 19.526 217.501 19.526C220.345 19.526 222.865 19.994 225.061 20.93C227.275 21.866 229.156 23.09 230.704 24.602L228.274 27.977C228.13 28.193 227.941 28.382 227.707 28.544C227.491 28.706 227.185 28.787 226.789 28.787C226.519 28.787 226.24 28.715 225.952 28.571C225.664 28.409 225.349 28.22 225.007 28.004C224.665 27.77 224.269 27.518 223.819 27.248C223.369 26.978 222.847 26.735 222.253 26.519C221.659 26.285 220.966 26.096 220.174 25.952C219.4 25.79 218.5 25.709 217.474 25.709C215.728 25.709 214.126 26.024 212.668 26.654C211.228 27.266 209.986 28.166 208.942 29.354C207.898 30.524 207.088 31.964 206.512 33.674C205.936 35.366 205.648 37.301 205.648 39.479C205.648 41.675 205.954 43.628 206.566 45.338C207.196 47.048 208.042 48.488 209.104 49.658C210.166 50.828 211.417 51.728 212.857 52.358C214.297 52.97 215.845 53.276 217.501 53.276C218.491 53.276 219.382 53.222 220.174 53.114C220.984 53.006 221.722 52.835 222.388 52.601C223.072 52.367 223.711 52.07 224.305 51.71C224.917 51.332 225.52 50.873 226.114 50.333C226.294 50.171 226.483 50.045 226.681 49.955C226.879 49.847 227.086 49.793 227.302 49.793ZM247.991 38.534C249.359 38.534 250.547 38.363 251.555 38.021C252.581 37.679 253.418 37.211 254.066 36.617C254.732 36.005 255.227 35.285 255.551 34.457C255.875 33.629 256.037 32.72 256.037 31.73C256.037 29.75 255.38 28.229 254.066 27.167C252.77 26.105 250.781 25.574 248.099 25.574H243.455V38.534H247.991ZM266.675 59H260.114C258.872 59 257.972 58.514 257.414 57.542L249.206 45.041C248.9 44.573 248.558 44.24 248.18 44.042C247.82 43.844 247.28 43.745 246.56 43.745H243.455V59H236.192V19.958H248.099C250.745 19.958 253.013 20.237 254.903 20.795C256.811 21.335 258.368 22.1 259.574 23.09C260.798 24.08 261.698 25.268 262.274 26.654C262.85 28.022 263.138 29.534 263.138 31.19C263.138 32.504 262.94 33.746 262.544 34.916C262.166 36.086 261.608 37.148 260.87 38.102C260.15 39.056 259.25 39.893 258.17 40.613C257.108 41.333 255.893 41.9 254.525 42.314C254.993 42.584 255.425 42.908 255.821 43.286C256.217 43.646 256.577 44.078 256.901 44.582L266.675 59ZM313.228 19.958V59H306.829V33.782C306.829 32.774 306.883 31.685 306.991 30.515L295.192 52.682C294.634 53.744 293.779 54.275 292.627 54.275H291.601C290.449 54.275 289.594 53.744 289.036 52.682L277.102 30.434C277.156 31.028 277.201 31.613 277.237 32.189C277.273 32.765 277.291 33.296 277.291 33.782V59H270.892V19.958H276.373C276.697 19.958 276.976 19.967 277.21 19.985C277.444 20.003 277.651 20.048 277.831 20.12C278.029 20.192 278.2 20.309 278.344 20.471C278.506 20.633 278.659 20.849 278.803 21.119L290.494 42.8C290.8 43.376 291.079 43.97 291.331 44.582C291.601 45.194 291.862 45.824 292.114 46.472C292.366 45.806 292.627 45.167 292.897 44.555C293.167 43.925 293.455 43.322 293.761 42.746L305.29 21.119C305.434 20.849 305.587 20.633 305.749 20.471C305.911 20.309 306.082 20.192 306.262 20.12C306.46 20.048 306.676 20.003 306.91 19.985C307.144 19.967 307.423 19.958 307.747 19.958H313.228Z" fill="#009391"/>
<g style="mix-blend-mode:multiply">
<path d="M84.9428 47.0572H68.6163C67.8055 47.0572 67.0279 46.7351 66.4545 46.1618C65.8812 45.5884 65.5591 44.8108 65.5591 44C65.5591 43.1892 65.8812 42.4116 66.4545 41.8383C67.0279 41.265 67.8055 40.9429 68.6163 40.9429H84.9428C85.7536 40.9429 86.5312 41.265 87.1046 41.8383C87.6779 42.4116 88 43.1892 88 44C88 44.8108 87.6779 45.5884 87.1046 46.1618C86.5312 46.7351 85.7536 47.0572 84.9428 47.0572Z" fill="#87BC2A"/>
</g>
<g style="mix-blend-mode:multiply">
<path d="M19.3837 47.0572H3.05716C2.24635 47.0572 1.46875 46.7351 0.895422 46.1618C0.322093 45.5884 0 44.8108 0 44C0 43.1892 0.322093 42.4116 0.895422 41.8383C1.46875 41.265 2.24635 40.9429 3.05716 40.9429H19.3837C20.1945 40.9429 20.9721 41.265 21.5454 41.8383C22.1188 42.4116 22.4409 43.1892 22.4409 44C22.4409 44.8108 22.1188 45.5884 21.5454 46.1618C20.9721 46.7351 20.1945 47.0572 19.3837 47.0572Z" fill="#87BC2A"/>
</g>
<g style="mix-blend-mode:multiply">
<path d="M44 22.4409C43.1892 22.4409 42.4116 22.1188 41.8383 21.5455C41.2649 20.9721 40.9428 20.1945 40.9428 19.3837V3.05716C40.9428 2.24635 41.2649 1.46875 41.8383 0.895423C42.4116 0.322093 43.1892 0 44 0C44.8108 0 45.5884 0.322093 46.1617 0.895423C46.7351 1.46875 47.0572 2.24635 47.0572 3.05716V19.3837C47.0572 19.7852 46.9781 20.1827 46.8245 20.5537C46.6708 20.9246 46.4456 21.2616 46.1617 21.5455C45.8779 21.8294 45.5408 22.0545 45.1699 22.2082C44.799 22.3618 44.4015 22.4409 44 22.4409Z" fill="#87BC2A"/>
</g>
<g style="mix-blend-mode:multiply">
<path d="M73.2346 34.8572C72.6269 34.8578 72.0328 34.6773 71.5282 34.3388C71.0236 34.0002 70.6313 33.5189 70.4015 32.9564C67.5321 26.0294 62.1192 20.464 55.2746 17.4032C54.5328 17.0754 53.9516 16.4664 53.6589 15.7101C53.3661 14.9538 53.3858 14.1121 53.7135 13.3703C54.0413 12.6285 54.6503 12.0473 55.4067 11.7545C56.163 11.4618 57.0046 11.4814 57.7464 11.8092C66.0605 15.4742 72.6266 22.2243 76.0605 30.6364C76.3664 31.387 76.3624 32.2282 76.0495 32.9759C75.7366 33.7236 75.1403 34.3169 74.3909 34.6259C74.0235 34.7753 73.6312 34.8537 73.2346 34.8572Z" fill="#40B9C4"/>
</g>
<g style="mix-blend-mode:multiply">
<path d="M14.5703 34.8572C14.1736 34.8545 13.7811 34.776 13.4139 34.6259C13.0423 34.4737 12.7043 34.2497 12.4192 33.9668C12.1341 33.6839 11.9076 33.3476 11.7526 32.9771C11.5975 32.6066 11.517 32.2092 11.5156 31.8076C11.5142 31.406 11.592 31.008 11.7444 30.6364C15.1841 22.2366 21.7499 15.4998 30.0585 11.8454C30.7769 11.6145 31.5553 11.6574 32.2439 11.966C32.9325 12.2745 33.4827 12.8268 33.7886 13.5166C34.0945 14.2064 34.1345 14.985 33.9008 15.7025C33.6672 16.42 33.1764 17.0258 32.523 17.4032C25.6781 20.4612 20.2667 26.0278 17.4034 32.9564C17.1736 33.5189 16.7813 34.0002 16.2767 34.3388C15.772 34.6773 15.178 34.8578 14.5703 34.8572Z" fill="#40B9C4"/>
</g>
<g style="mix-blend-mode:multiply">
<path d="M62.8344 76.0603C62.4323 76.0603 62.0342 75.981 61.6628 75.8269C61.2914 75.6728 60.9541 75.4469 60.6701 75.1623C60.3861 74.8776 60.1611 74.5398 60.0079 74.168C59.8547 73.7963 59.7763 73.398 59.7773 72.9959C59.8225 70.8655 59.442 68.7474 58.658 66.766C57.8741 64.7846 56.7024 62.9796 55.2117 61.4569C53.721 59.9342 51.9413 58.7244 49.977 57.8985C48.0127 57.0726 45.9032 56.6472 43.7723 56.6472C41.6414 56.6472 39.532 57.0726 37.5677 57.8985C35.6033 58.7244 33.8236 59.9342 32.333 61.4569C30.8423 62.9796 29.6706 64.7846 28.8866 66.766C28.1026 68.7474 27.7221 70.8655 27.7674 72.9959C27.6936 73.7517 27.3412 74.453 26.7788 74.9632C26.2163 75.4735 25.4841 75.7561 24.7247 75.7561C23.9653 75.7561 23.2331 75.4735 22.6706 74.9632C22.1082 74.453 21.7557 73.7517 21.682 72.9959C21.6289 70.0575 22.1617 67.138 23.2495 64.4078C24.3372 61.6777 25.9581 59.1916 28.0173 57.0948C30.0765 54.998 32.5329 53.3325 35.2429 52.1956C37.953 51.0587 40.8624 50.4731 43.8012 50.4731C46.7401 50.4731 49.6495 51.0587 52.3596 52.1956C55.0696 53.3325 57.526 54.998 59.5852 57.0948C61.6444 59.1916 63.2652 61.6777 64.353 64.4078C65.4407 67.138 65.9736 70.0575 65.9205 72.9959C65.9205 73.4001 65.8405 73.8004 65.6852 74.1736C65.5298 74.5468 65.3022 74.8856 65.0153 75.1704C64.7284 75.4553 64.3881 75.6805 64.0138 75.8333C63.6395 75.986 63.2387 76.0631 62.8344 76.0603Z" fill="#EC6E76"/>
</g>
<g style="mix-blend-mode:multiply">
<path d="M43.9711 56.9947C41.37 56.999 38.8262 56.2316 36.6614 54.7897C34.4966 53.3477 32.8082 51.296 31.8098 48.8942C30.8115 46.4923 30.5481 43.8483 31.0529 41.2967C31.5577 38.7451 32.808 36.4006 34.6458 34.5599C36.4835 32.7191 38.8259 31.4649 41.3767 30.9559C43.9274 30.4468 46.5719 30.7059 48.9753 31.7003C51.3788 32.6947 53.4333 34.3797 54.8788 36.5421C56.3243 38.7045 57.0959 41.2471 57.0959 43.8482C57.0921 47.3299 55.7088 50.6683 53.2489 53.1323C50.7889 55.5963 47.4528 56.9852 43.9711 56.9947ZM43.9711 36.8232C42.5796 36.8218 41.219 37.2332 40.0615 38.0053C38.904 38.7775 38.0015 39.8757 37.4684 41.161C36.9352 42.4462 36.7953 43.8608 37.0664 45.2255C37.3376 46.5903 38.0075 47.844 38.9914 48.8279C39.9753 49.8118 41.2289 50.4817 42.5937 50.7528C43.9585 51.0239 45.373 50.8841 46.6583 50.3509C47.9436 49.8178 49.0418 48.9153 49.8139 47.7578C50.5861 46.6002 50.9975 45.2396 50.9961 43.8482C50.9846 41.9919 50.2397 40.2154 48.9237 38.9062C47.6077 37.597 45.8274 36.8612 43.9711 36.8593V36.8232Z" fill="#9169A8"/>
</g>
</svg>
